<svg width="21" height="17" viewBox="0 0 21 17" fill="none" xmlns="http://www.w3.org/2000/svg">
<path d="M2.1 17C1.5225 17 1.0283 16.7921 0.6174 16.3763C0.2058 15.9598 0 15.4594 0 14.875V2.125C0 1.54062 0.2058 1.04054 0.6174 0.62475C1.0283 0.20825 1.5225 0 2.1 0H18.9C19.4775 0 19.972 0.20825 20.3836 0.62475C20.7945 1.04054 21 1.54062 21 2.125V14.875C21 15.4594 20.7945 15.9598 20.3836 16.3763C19.972 16.7921 19.4775 17 18.9 17H2.1ZM18.9 4.25L11.0512 9.21719C10.9637 9.27031 10.8717 9.30998 10.7751 9.33619C10.6792 9.3631 10.5875 9.37656 10.5 9.37656C10.4125 9.37656 10.3208 9.3631 10.2249 9.33619C10.1283 9.30998 10.0363 9.27031 9.94875 9.21719L2.1 4.25V14.875H18.9V4.25ZM10.5 7.4375L18.9 2.125H2.1L10.5 7.4375ZM2.1 4.25V4.51562V2.94844V2.975V2.125V2.975V2.96119V4.51562V4.25V14.875V4.25Z" fill="white"/>
</svg>
