<svg width="21" height="21" viewBox="0 0 21 21" fill="none" xmlns="http://www.w3.org/2000/svg">
<path d="M1.225 21C0.875 21 0.583333 20.8833 0.35 20.65C0.116667 20.4167 0 20.125 0 19.775V15.05C0 14.7778 0.0874999 14.5394 0.2625 14.3348C0.4375 14.1311 0.661111 14 0.933333 13.9417L4.95833 13.125C5.23056 13.0861 5.50783 13.1102 5.79017 13.1973C6.07172 13.2852 6.3 13.4167 6.475 13.5917L9.21667 16.3333C10.6944 15.4389 12.0458 14.3792 13.2708 13.1542C14.4958 11.9292 15.5167 10.6167 16.3333 9.21667L13.5333 6.35833C13.3583 6.18333 13.2463 5.98383 13.1973 5.75983C13.1491 5.53661 13.1444 5.28889 13.1833 5.01667L13.9417 0.933333C13.9806 0.661111 14.1069 0.4375 14.3208 0.2625C14.5347 0.0874999 14.7778 0 15.05 0H19.775C20.125 0 20.4167 0.116667 20.65 0.35C20.8833 0.583333 21 0.875 21 1.225C21 3.73333 20.4408 6.17828 19.3223 8.55983C18.2047 10.9422 16.7269 13.0519 14.889 14.889C13.0519 16.7269 10.9426 18.2047 8.561 19.3223C6.17867 20.4408 3.73333 21 1.225 21Z" fill="white"/>
</svg>
