<svg width="42" height="42" viewBox="0 0 42 42" fill="none" xmlns="http://www.w3.org/2000/svg">
<path d="M21 42C32.598 42 42 32.598 42 21C42 9.40202 32.598 0 21 0C9.40202 0 0 9.40202 0 21C0 32.598 9.40202 42 21 42Z" fill="white"/>
<path fill-rule="evenodd" clip-rule="evenodd" d="M23.0807 10.6188C22.4259 8.60347 19.5747 8.60347 18.9198 10.6188L17.3022 15.5973C17.2604 15.7261 17.1404 15.8132 17.005 15.8132H11.7703C9.65117 15.8132 8.77017 18.5249 10.4846 19.7705L14.7195 22.8473C14.829 22.9269 14.8749 23.068 14.833 23.1967L13.2154 28.1752C12.5606 30.1906 14.8673 31.8664 16.5816 30.6209L20.8166 27.544C20.9261 27.4644 21.0744 27.4644 21.1839 27.544L25.4189 30.6209C27.1333 31.8665 29.4399 30.1905 28.7851 28.1752L27.1675 23.1967C27.1257 23.068 27.1715 22.9269 27.281 22.8473L31.516 19.7705C33.2303 18.5249 32.3493 15.8132 30.2302 15.8132C29.7124 15.8132 29.2927 16.233 29.2927 16.7507C29.2927 17.2685 29.7124 17.6882 30.2302 17.6882C30.5329 17.6882 30.6588 18.0756 30.4139 18.2535L26.1789 21.3304C25.4122 21.8875 25.0914 22.8748 25.3843 23.7761L27.0019 28.7546C27.0954 29.0425 26.7659 29.2819 26.521 29.104L22.286 26.0271C21.5193 25.4701 20.4812 25.4701 19.7145 26.0271L15.4795 29.104C15.2346 29.2819 14.9051 29.0425 14.9986 28.7546L16.6162 23.7761C16.9091 22.8748 16.5883 21.8875 15.8216 21.3304L11.5867 18.2535C11.3417 18.0756 11.4676 17.6882 11.7703 17.6882H17.005C17.9527 17.6882 18.7926 17.078 19.0854 16.1767L20.7031 11.1982C20.7966 10.9103 21.2039 10.9103 21.2975 11.1982L22.9151 16.1767C23.2079 17.078 24.0478 17.6882 24.9955 17.6882C25.5133 17.6882 25.933 17.2685 25.933 16.7507C25.933 16.233 25.5133 15.8132 24.9955 15.8132C24.8601 15.8132 24.7401 15.7261 24.6983 15.5973L23.0807 10.6188Z" fill="#7D96A2"/>
</svg>
