<svg width="254" height="35" viewBox="0 0 254 35" fill="none" xmlns="http://www.w3.org/2000/svg">
<path d="M62.6367 24.2241C62.6367 24.6474 62.6367 25.132 62.6757 25.6667C62.4251 25.2712 62.1911 24.9148 61.9739 24.6084L45.6993 1.9955L45.6158 1.87854H43.7388V30.6627H46.195V6.74645C46.3955 7.07691 46.6183 7.40553 46.8634 7.73228L63.3274 30.6627H65.0818V1.87854H62.6367V24.2241Z" fill="#F4DCB3"/>
<path d="M80.9443 1.87854H78.7164L68.134 30.6627H70.8075L73.971 21.8793H85.5003L88.6416 30.6627H91.3707L81.0111 2.06234L80.9443 1.87854ZM79.8303 5.66036C79.9163 6.06977 80.0336 6.47197 80.1812 6.86341L84.6983 19.5345H74.8566L79.3569 6.82999C79.5188 6.3956 79.6583 5.95315 79.7747 5.50441L79.8303 5.66036Z" fill="#F4DCB3"/>
<path d="M87.8395 4.24009H95.7819V30.6627H98.2214V4.24009H106.158V1.87854H87.8395V4.24009Z" fill="#F4DCB3"/>
<path d="M126.243 19.54C126.243 25.7781 123.87 28.8135 119.002 28.8135C113.945 28.8135 111.483 25.689 111.483 19.2671V1.87854H109.055V19.54C109.055 27.2262 112.252 31.1528 118.612 31.1528C125.296 31.1528 128.682 27.0981 128.682 19.1056V1.87854H126.243V19.54Z" fill="#F4DCB3"/>
<path d="M143.843 17.379C145.52 16.9961 147.031 16.0866 148.154 14.7835C149.359 13.2932 149.988 11.419 149.925 9.50344C149.965 8.48357 149.794 7.4664 149.421 6.5163C149.048 5.5662 148.482 4.70387 147.758 3.98388C146.327 2.58589 144.338 1.87854 141.849 1.87854H133.929V30.6627H136.385V18.0919H139.521C140.474 18.0559 141.412 18.3424 142.183 18.9051C142.896 19.462 143.626 20.576 144.361 22.2469L148.098 30.6627H150.883L146.594 21.2666C145.703 19.3117 144.795 18.0306 143.843 17.3678M147.413 9.70395C147.458 10.5296 147.324 11.3553 147.02 12.1243C146.717 12.8934 146.25 13.5877 145.653 14.1597C144.483 15.2347 142.868 15.7805 140.835 15.7805H136.379V4.24009H141.236C143.23 4.24009 144.773 4.73022 145.826 5.68821C146.362 6.20493 146.781 6.83099 147.054 7.52389C147.327 8.21679 147.447 8.9603 147.407 9.70395" fill="#F4DCB3"/>
<path d="M168.695 19.5345H159.003L164.016 5.48215C164.105 5.24265 164.2 4.96417 164.289 4.65227L164.317 4.56315L163.426 2.16262C163.402 2.09642 163.359 2.03911 163.302 1.99859C163.244 1.95806 163.176 1.93629 163.105 1.93629C163.035 1.93629 162.967 1.95806 162.909 1.99859C162.852 2.03911 162.809 2.09642 162.785 2.16262L152.314 30.6627H154.988L158.068 22.1021C158.093 22.0366 158.137 21.9802 158.194 21.9404C158.252 21.9006 158.321 21.8793 158.391 21.8793H169.53L168.695 19.5456" fill="#F4DCB3"/>
<path d="M178.163 27.9391L178.13 28.1117H177.679L177.651 27.9391C177.491 27.0102 177.251 26.097 176.932 25.2099L168.812 1.90637H167.063L177.244 30.568H178.408L189.225 1.90637H187.587L178.954 25.1765C178.614 26.0814 178.35 27.0129 178.163 27.9614" fill="#DAA700"/>
<path d="M194.772 16.8331H205.204V15.4296H194.772V3.34335H206.006V1.90637H193.246V30.5791H206.663V29.1867H194.772V16.8331Z" fill="#DAA700"/>
<path d="M221.378 17.5182L221.25 17.4681V17.0727L221.417 17.0393C223.27 16.7513 224.963 15.823 226.202 14.4159C227.365 12.9671 227.97 11.1488 227.906 9.29182C227.947 8.30855 227.784 7.32749 227.427 6.41024C227.07 5.49299 226.528 4.65934 225.834 3.96163C224.458 2.61377 222.531 1.93427 220.108 1.93427H212.478V30.568H214.01V17.6185H217.719C218.811 17.5798 219.883 17.9137 220.76 18.5653C221.568 19.1947 222.347 20.3755 223.15 22.1801L226.853 30.568H228.591L224.531 21.6008C223.5 19.334 222.442 17.9583 221.378 17.5182ZM219.073 16.2205H214.01V3.3434H219.49C221.662 3.3434 223.361 3.90036 224.542 4.96417C225.144 5.54401 225.615 6.24631 225.922 7.02363C226.23 7.80096 226.367 8.63521 226.324 9.47005C226.367 10.3878 226.213 11.3041 225.872 12.1572C225.53 13.0104 225.011 13.7805 224.347 14.4159C223.049 15.6078 221.267 16.2149 219.061 16.2149" fill="#DAA700"/>
<path d="M249.037 21.5284L252.262 30.568H254L243.629 1.90637H242.07L231.588 30.568H233.259L236.506 21.5117L249.037 21.5284ZM241.88 6.33984C242.134 5.63248 242.346 4.9109 242.515 4.1788L242.554 4.01728H242.972L243.306 5.18692C243.394 5.58981 243.509 5.98619 243.652 6.37326L248.531 20.1081H237.024L241.88 6.33984Z" fill="#DAA700"/>
<path d="M16.0407 13.3632C15.8369 13.061 15.5758 12.8018 15.2721 12.6002C11.5348 15.4909 6.56109 17.5405 0 18.7937V20.6372C2.2522 20.2935 4.46614 19.7339 6.61122 18.9663C10.8498 17.3846 14.0412 16.0645 16.5587 14.5106C16.4741 14.0945 16.3013 13.7013 16.0518 13.3577" fill="#DAA700"/>
<path d="M12.8437 10.0047C10.7553 11.564 8.44144 12.7961 5.98186 13.6584C4.05055 14.3851 2.0526 14.9205 0.0167236 15.2569V16.9278C6.01528 15.8752 10.471 14.4549 14.0913 11.4083C13.863 11.1688 13.6346 10.9237 13.4063 10.6675C13.1779 10.4113 13.0164 10.2164 12.8493 10.0047" fill="#DAA700"/>
<path d="M11.9804 8.36721C14.1749 6.39554 16.0407 3.72766 17.7116 0.0349579H15.4837C13.9898 3.34726 11.6453 6.20484 8.68873 8.31708C6.74491 9.68723 3.63145 11.0462 0.0167236 12.0766V13.6194C4.81779 12.667 8.66088 11.2913 11.8523 8.4786C11.8523 8.35607 11.9136 8.33379 11.9804 8.36721Z" fill="#DAA700"/>
<path d="M13.9966 0.0349579H11.9247C9.54089 4.4183 7.00668 6.35098 0.311916 8.70696L0.0167236 8.80165V10.1662C0.841037 9.91001 1.67278 9.61482 2.51195 9.28064C8.67759 6.82441 11.9804 4.22336 13.9966 0.0349579Z" fill="#DAA700"/>
<path d="M10.3318 0.0349579H8.37681C6.62793 2.95904 4.34992 4.49071 0.0222778 6.10035V7.49834C0.451144 7.33682 0.874436 7.16416 1.29773 6.98036C6.05981 5.12008 8.64972 3.08158 10.3373 0.0349579" fill="#DAA700"/>
<path d="M7.0401 0.0349579H4.81222C3.45805 1.38644 1.82529 2.42617 0.0278625 3.08158V4.75248L0.523564 4.55197C3.67601 3.33778 5.66439 1.88409 7.05124 0.046097" fill="#DAA700"/>
<path d="M0.651668 0.0349579C0.451159 0.146352 0.239511 0.252176 0.0167236 0.358V1.83397C1.16153 1.37638 2.24186 0.771622 3.23044 0.0349579H0.651668Z" fill="#DAA700"/>
<path d="M10.0979 28.5072C6.75605 29.4206 3.41423 30.2784 0.0167236 31.0024V34.1827C0.873075 33.8893 1.79649 33.8526 2.67347 34.0769C5.4753 34.7865 8.43618 34.5071 11.0558 33.286C11.0141 32.536 10.9098 31.7908 10.7439 31.0581C10.5713 30.2839 10.3262 29.3872 10.0979 28.5016" fill="#DAA700"/>
<path d="M25.1137 22.1801L25.1917 22.2636C25.7148 22.7892 26.2731 23.2786 26.8626 23.7285C27.2954 24.1489 27.7062 24.5913 28.0935 25.054C28.7575 24.6219 29.4476 24.2313 30.1598 23.8844C30.2777 23.8107 30.3781 23.7123 30.4541 23.5959C30.53 23.4795 30.5798 23.348 30.5999 23.2105C30.6388 20.9826 32.1315 20.3309 33.8191 19.5066C34.2228 19.2966 34.6101 19.0565 34.9776 18.7881V8.57333C33.1351 14.0049 29.6879 18.7495 25.0914 22.1801" fill="#DAA700"/>
<path d="M21.4767 0.0349579H19.7668C19.6421 0.433015 19.4857 0.820423 19.299 1.19345C17.2994 5.12008 15.5784 7.64315 13.3895 9.54798C13.8351 9.99913 14.264 10.467 14.6594 10.9126C17.3384 8.45632 19.5217 5.01983 21.4767 0.0405272" fill="#DAA700"/>
<path d="M16.8037 13.0792C17.1128 13.2886 17.3809 13.5529 17.5946 13.859C21.6104 11.0351 23.7714 7.29229 25.9492 0.0405579H23.6322C22.0838 5.05328 19.6164 9.0913 15.8346 12.1992C16.116 12.5451 16.4506 12.8441 16.826 13.0848" fill="#DAA700"/>
<path d="M19.7835 16.5602L20.3405 17.1673C21.8326 16.1383 23.1316 14.8543 24.178 13.3744C27.091 9.17483 29.1907 4.90845 30.0373 0.00712585H27.971C26.456 6.13378 23.415 11.4584 18.5749 15.2012C18.6422 15.2979 18.7148 15.3909 18.7921 15.4797C19.1486 15.8696 19.5218 16.2873 19.7668 16.5324" fill="#DAA700"/>
<path d="M32.1427 8.3505C33.2234 5.67012 34.0169 2.88268 34.5098 0.0349579H31.9867C31.8586 0.942817 31.7194 1.76713 31.569 2.44106C30.1264 8.73481 27.1801 14.8169 21.9669 18.8716L23.1811 20.1582C27.0241 17.3734 30.0262 13.6306 32.1427 8.3505Z" fill="#DAA700"/>
<path d="M8.80011 21.0995C8.98375 21.3607 9.13522 21.6431 9.25125 21.9405C11.9743 21.1163 14.6421 20.1192 17.2382 18.9552C17.9053 18.6537 18.556 18.3172 19.1876 17.9471C18.5638 17.4792 18.5805 17.0058 18.1739 16.3263C18.0679 16.1447 17.9507 15.9698 17.823 15.8027C15.726 17.2883 13.4188 18.4522 10.9779 19.256C7.70845 20.342 3.94891 21.4393 0.0445557 22.336V24.0793C2.96452 23.5951 5.85292 22.9367 8.69428 22.1076C8.5996 21.6676 8.5439 21.3891 8.5439 21.3502C8.5439 21.3112 8.43251 20.8322 8.80011 21.0995Z" fill="#DAA700"/>
<path d="M11.869 25.4105C15.3363 24.4428 18.6551 23.0055 21.7329 21.1385C21.5524 20.7991 21.3417 20.4767 21.1035 20.175C20.9699 20.0134 20.864 19.8742 20.7582 19.7517C18.8394 21.045 16.7338 22.0368 14.5146 22.6925C13.0498 23.1269 11.5849 23.5502 10.1313 23.9679C10.3596 24.5249 10.6102 25.0819 10.8609 25.6945C11.1951 25.5943 11.5348 25.5107 11.869 25.4105Z" fill="#DAA700"/>
<path d="M9.05633 24.2743C6.05427 25.1209 3.0522 25.9117 0.0167236 26.5913V28.3011C3.19145 27.6272 6.37174 26.9199 9.56317 26.0733C9.54406 26.0011 9.51987 25.9304 9.49077 25.8616C9.30249 25.3511 9.15717 24.8257 9.05633 24.291" fill="#DAA700"/>
<path d="M23.0919 23.5558C20.4009 25.1843 17.5002 26.4379 14.47 27.2819L11.83 28.0282C12.0138 28.4794 12.1976 28.9138 12.3591 29.326C12.4872 29.6379 12.4984 30.1781 12.6098 30.4399C12.8802 30.9482 13.2608 31.3897 13.7237 31.7321C13.8852 31.6207 14.0468 31.5149 14.2083 31.3979C16.3693 29.8439 18.2296 28.7801 20.6858 28.5406C22.2466 28.3718 23.7489 27.852 25.0803 27.0201C24.579 26.0287 23.7436 24.6307 23.0641 23.5391" fill="#DAA700"/>
</svg>
