<svg width="252" height="56" viewBox="0 0 252 56" fill="none" xmlns="http://www.w3.org/2000/svg">
<path d="M45.7063 39.7209C45.7063 40.4723 45.7063 41.3739 45.7063 42.4258C45.2288 41.6243 44.7766 40.9231 44.3745 40.347L25.7302 14.551H24.0969V46.6583H26.283V20.0107C26.283 19.4598 26.283 18.9839 26.283 18.6082L26.5594 19.059C26.8644 19.601 27.2087 20.1199 27.5896 20.6118L46.3344 46.6583H47.8672V14.4508H45.7063V39.7209Z" fill="white"/>
<path d="M66.1849 14.4508H64.0993L52.2142 46.6583H54.6013L58.2196 36.6404H71.8887L75.4819 46.6583H77.9946L66.1849 14.4508ZM58.9734 34.4866L64.2752 19.4597C64.5787 18.6437 64.8223 17.8066 65.0039 16.9553C65.0039 17.3309 65.23 17.7066 65.3305 18.0823C65.431 18.458 65.5567 18.9589 65.7074 19.4097L71.1349 34.712L58.9734 34.4866Z" fill="white"/>
<path d="M162.171 14.4508H160.11L148.225 46.6583H150.738L154.356 36.6404H168L171.593 46.6583H174.106L162.171 14.4508ZM154.984 34.4866L160.286 19.4597C160.579 18.6425 160.815 17.8056 160.99 16.9553C160.99 17.3309 161.216 17.7066 161.316 18.0823C161.419 18.5335 161.554 18.977 161.718 19.4097L167.146 34.712L154.984 34.4866Z" fill="white"/>
<path d="M74.6024 16.5045H83.6985V46.6834H85.8594V16.5045H94.9554V14.4508H74.6024V16.5045Z" fill="white"/>
<path d="M118.575 34.2862C118.575 41.5492 115.702 45.1807 109.956 45.1807C104.211 45.1807 101.22 41.4407 100.986 33.9606V14.4508H98.8501V34.2862C98.8501 42.9016 102.393 47.2343 109.504 47.2343C116.615 47.2343 120.711 42.7513 120.711 33.7853V14.4508H118.575V34.2862Z" fill="white"/>
<path d="M141.315 36.39C140.682 34.4681 139.393 32.8284 137.672 31.7567C139.79 31.4322 141.722 30.3668 143.124 28.7513C144.461 27.1051 145.157 25.0329 145.084 22.9159C145.134 21.7976 144.95 20.6812 144.543 19.6377C144.136 18.5943 143.516 17.6466 142.722 16.8551C141.844 16.0397 140.812 15.4071 139.686 14.9943C138.56 14.5815 137.363 14.3967 136.164 14.4508H127.42V46.6583H129.581V32.2075H133.5C134.665 32.1567 135.811 32.5109 136.742 33.2093C137.869 34.3023 138.729 35.6391 139.255 37.1163L143.451 46.5581H145.964L141.315 36.39ZM135.008 30.2791H129.581V16.5045H135.46C137.44 16.3713 139.396 16.9886 140.938 18.2326C141.588 18.8472 142.096 19.596 142.426 20.4265C142.756 21.2571 142.9 22.1494 142.848 23.0411C142.901 24.0255 142.74 25.0096 142.375 25.9261C142.011 26.8425 141.452 27.6696 140.737 28.3506C139.151 29.7096 137.096 30.4011 135.008 30.2791Z" fill="white"/>
<path d="M182.348 43.0769C181.795 43.0769 181.368 42.6011 181.016 41.5993C180.508 39.3402 180.381 37.0127 180.639 34.712C184.142 29.9805 186.825 24.6983 188.579 19.0841C190.891 12.1467 191.393 6.78712 190.112 3.15564C189.834 2.33313 189.38 1.58096 188.78 0.951701C188.339 0.48836 187.737 0.210616 187.097 0.175311C186.386 0.254734 185.727 0.583159 185.237 1.10197C182.926 3.60645 181.016 8.61539 179.584 16.254C178.055 24.4687 177.674 32.8548 178.453 41.1735C178.527 41.9507 178.696 42.7159 178.955 43.4526C179.734 45.6816 180.84 46.7585 182.272 46.7335C183.704 46.7084 184.961 45.2558 186.494 42.3757C187.18 41.3945 187.663 40.2863 187.913 39.1164C188.163 37.9465 188.176 36.7385 187.951 35.5635C187.83 35.1964 187.613 34.8679 187.323 34.6118C187.117 34.4187 186.851 34.3035 186.569 34.2862C186.569 34.2862 186.041 34.2862 185.991 35.4383C186.046 37.1736 185.666 38.8951 184.885 40.4472C184.006 42.3506 183.177 43.2773 182.373 43.2773M182.8 12.1717C184.71 4.20751 185.941 3.15564 186.795 3.15564C187.222 3.15564 187.8 3.356 188.152 4.35778C188.881 6.4365 188.554 10.068 187.147 15.4275C186.212 19.8398 184.336 23.9996 181.644 27.6243L181.141 28.2254V27.449C180.949 22.3019 181.516 17.1545 182.825 12.1717" fill="white"/>
<path d="M195.263 24.4937C195.145 24.5035 195.031 24.5375 194.927 24.5936C194.823 24.6496 194.732 24.7265 194.66 24.8193C194.477 25.067 194.325 25.3362 194.208 25.6207C193.158 28.8269 192.451 32.1344 192.097 35.4884C191.576 38.7544 191.765 42.0937 192.65 45.2809C192.869 45.8678 193.193 46.4107 193.605 46.8837C194.082 47.4848 194.383 47.5599 194.534 47.5599C194.911 47.5599 195.037 47.5599 195.062 47.4347C195.087 47.3095 195.389 46.8587 195.062 45.6315C194.737 42.6265 194.737 39.5953 195.062 36.5903C195.127 33.5625 195.592 30.5563 196.444 27.6494C196.694 27.0047 196.694 26.2904 196.444 25.6458C196.376 25.3497 196.219 25.0811 195.995 24.8754C195.771 24.6698 195.489 24.5367 195.188 24.4937" fill="white"/>
<path d="M198.027 15.4025C198.307 14.9033 198.478 14.351 198.53 13.7815C198.582 13.212 198.513 12.638 198.328 12.0966C197.96 11.0447 197.382 10.5188 196.595 10.5188C195.975 10.5188 195.397 11.0948 194.861 12.2469C194.597 12.7476 194.437 13.2959 194.39 13.8594C194.342 14.4229 194.408 14.9902 194.585 15.5277C194.961 16.6047 195.539 17.1055 196.268 17.1055C196.997 17.1055 197.499 16.5295 198.052 15.4025" fill="white"/>
<path d="M214.334 47.2343C213.801 46.5383 213.385 45.76 213.103 44.9302C212.567 43.3137 212.288 41.6237 212.274 39.9213C212.226 38.4169 212.276 36.911 212.425 35.4132C212.861 33.2043 213.423 31.0219 214.108 28.8766C214.387 28.0726 214.473 27.215 214.36 26.3721C214.179 26.1083 213.928 25.9003 213.635 25.7719C213.342 25.6434 213.018 25.5998 212.701 25.6458C211.369 25.6458 209.962 26.9732 208.53 29.5027C206.821 32.4329 206.319 33.3095 206.193 33.5599L205.314 35.1878L205.59 33.3596C205.741 32.2576 205.942 31.1556 206.143 30.0286C206.4 28.9669 206.4 27.8595 206.143 26.7978C206.051 26.4719 205.847 26.1884 205.567 25.9963C205.287 25.8043 204.949 25.7157 204.61 25.746C204.459 25.746 203.655 26.3721 202.55 34.5617C202.324 36.5152 202.123 38.1681 201.972 39.5707C201.61 41.5749 201.61 43.6273 201.972 45.6315C202.223 46.6082 202.701 46.6834 203.077 46.7084C203.454 46.7335 204.384 46.0572 205.59 40.1467C206.056 37.7697 207.129 35.5528 208.706 33.7102L209.359 32.9839V33.9606C209.205 35.6267 209.205 37.3035 209.359 38.9696C209.474 41.0749 209.871 43.1554 210.54 45.1556C211.07 46.6453 211.929 47.9976 213.053 49.1127C213.679 49.9163 214.568 50.4749 215.566 50.6905C215.642 50.6988 215.719 50.692 215.792 50.6705C215.865 50.6491 215.933 50.6133 215.993 50.5653C215.993 50.5653 215.993 50.2648 215.993 49.6887C215.527 48.7943 214.962 47.9543 214.309 47.1843" fill="white"/>
<path d="M232.15 42.0501C234.185 39.3202 234.939 37.0411 234.386 35.5635C234.21 35.0376 233.984 34.7871 233.707 34.7871C233.707 34.7871 233.406 34.7871 232.929 35.9642C232.183 37.9585 231.028 39.7755 229.536 41.2987C228.443 42.6003 226.884 43.4267 225.189 43.6029C224.322 43.6023 223.484 43.2912 222.827 42.7263C222.047 41.9899 221.468 41.0677 221.144 40.0465V39.771L221.395 39.6458C222.212 39.2995 222.988 38.8626 223.707 38.3435C224.495 37.8293 225.156 37.1444 225.642 36.3399C226.591 35.0152 227.312 33.5425 227.777 31.9821C228.425 30.2732 228.496 28.4001 227.978 26.6476C227.714 25.8788 227.224 25.207 226.571 24.7191C225.994 24.2322 225.267 23.958 224.511 23.9428C223.559 24.0609 222.675 24.4929 221.998 25.1699C220.786 26.385 219.806 27.811 219.109 29.3775C218.315 30.936 217.853 32.6414 217.752 34.3864C217.502 36.6234 217.742 38.8876 218.455 41.0233C219.032 42.5839 220.032 43.9539 221.345 44.9803C222.407 45.9294 223.764 46.4864 225.189 46.5581C226.648 46.42 228.052 45.9395 229.288 45.1559C230.524 44.3723 231.557 43.308 232.3 42.0501M220.315 36.3148V35.9392C220.488 34.7053 220.774 33.4897 221.169 32.3077C221.495 31.1663 221.95 30.0656 222.526 29.0268C223.129 27.8748 223.858 27.2737 224.662 27.2737C224.994 27.307 225.309 27.4395 225.564 27.654C225.82 27.8685 226.004 28.155 226.094 28.4758C226.308 29.3479 226.307 30.2585 226.093 31.1304C225.879 32.0024 225.457 32.81 224.863 33.4848C224.457 34.2831 223.859 34.9687 223.122 35.4801C222.386 35.9914 221.533 36.3127 220.641 36.415L220.315 36.3148Z" fill="white"/>
<path d="M250.191 46.7835C249.662 46.0752 249.247 45.2895 248.96 44.4544C248.449 42.8317 248.17 41.1456 248.13 39.4454C248.13 37.9928 248.13 36.4651 248.281 34.9374C248.714 32.7193 249.276 30.5283 249.965 28.3757C250.268 27.5773 250.354 26.7135 250.216 25.8712C249.965 25.3703 249.387 25.1449 248.507 25.1449C247.176 25.1449 245.794 26.4723 244.336 29.0018C242.879 31.5313 242.175 32.7335 241.999 33.059L241.12 34.6869L241.396 32.8587C241.572 31.7567 241.748 30.6297 241.949 29.5277C242.203 28.4741 242.203 27.3756 241.949 26.322C241.857 25.9939 241.655 25.7075 241.375 25.5113C241.096 25.315 240.757 25.221 240.416 25.2451C240.266 25.2451 239.462 25.8712 238.381 34.0608C238.13 35.9392 237.954 37.6422 237.778 39.0698C237.417 41.0656 237.417 43.1097 237.778 45.1055C238.029 46.0823 238.532 46.1825 238.884 46.1825C239.235 46.1825 240.19 45.5313 241.522 39.6207C241.98 37.2463 243.045 35.0295 244.613 33.1843L245.291 32.458V33.4347C245.124 35.1002 245.124 36.7781 245.291 38.4437C245.418 40.5393 245.815 42.6099 246.472 44.6047C247.004 46.0936 247.862 47.4455 248.985 48.5617C249.611 49.37 250.499 49.9365 251.497 50.1646C251.648 50.1646 251.849 50.1646 251.925 50.0143C252 49.864 251.925 49.7388 251.925 49.1377C251.475 48.2336 250.909 47.3917 250.241 46.6333" fill="white"/>
<path d="M15.9306 24.3936C14.9424 17.7133 12.4138 11.3523 8.54323 5.81037C8.50688 5.76506 8.46109 5.72816 8.40903 5.70221C8.35697 5.67627 8.29988 5.66191 8.2417 5.66011C8.18189 5.66652 8.12411 5.68545 8.07215 5.71567C8.02019 5.74588 7.97522 5.78669 7.94018 5.83542C6.15615 8.3399 0.251279 17.1055 0.0502625 25.1449C0.301318 32.084 2.37184 38.8365 6.05564 44.7299L6.40742 45.4061C8.68584 40.9368 10.0846 36.0741 10.5283 31.0805C10.6491 28.0371 10.2844 24.9938 9.4478 22.0644L7.23661 22.4651C7.18417 22.4735 7.13432 22.4937 7.0908 22.524C7.04729 22.5544 7.01123 22.5942 6.98535 22.6404C6.96109 22.6823 6.94832 22.7298 6.94832 22.7782C6.94832 22.8265 6.96109 22.874 6.98535 22.9159C7.57535 25.846 7.91994 28.8198 8.01556 31.8068C7.99221 34.3149 7.52435 36.7991 6.63357 39.1449C6.58501 39.2593 6.54307 39.3764 6.50793 39.4955V39.6458H6.35717C4.1054 34.9434 2.85626 29.8268 2.68861 24.619C3.46436 19.566 5.23182 14.7151 7.88992 10.3435V10.1932C7.91732 10.1799 7.9474 10.173 7.97787 10.173C8.00834 10.173 8.03841 10.1799 8.06581 10.1932C8.84475 10.3685 12.7897 19.3846 13.3174 24.9946C14.3792 32.5127 13.1446 40.1752 9.77446 46.9839C7.26175 52.3936 7.51301 54.4973 8.09094 55.424C8.21975 55.6165 8.39597 55.7729 8.60274 55.8781C8.80951 55.9833 9.03992 56.0339 9.27191 56.025C9.33654 56.0502 9.40831 56.0502 9.47294 56.025L10.7042 55.0233C10.7421 54.9633 10.7622 54.8938 10.7622 54.8229C10.7622 54.752 10.7421 54.6825 10.7042 54.6225C10.3769 52.677 10.6759 50.6781 11.5585 48.9123C11.5585 48.6368 11.8349 48.2361 12.061 47.7102C15.5845 40.5108 16.8623 32.4241 15.7296 24.4937" fill="white"/>
</svg>
