<svg width="253" height="55" viewBox="0 0 253 55" fill="none" xmlns="http://www.w3.org/2000/svg">
<path d="M25.7257 45.1227C25.7257 45.7372 25.7257 46.4199 25.7257 47.171C25.357 46.5975 25.0292 46.0854 24.7015 45.6348L2.72411 14.891L2.6217 14.7476H-3.05176e-05V53.8482H3.27713V21.1995C3.57162 21.7059 3.90008 22.1918 4.26028 22.6537L26.6473 53.8482H28.9823V14.7476H25.7257V45.1227Z" fill="#F9E9BA"/>
<path d="M50.5911 14.7476H47.6417L33.3041 53.8482H36.868L41.1898 41.907H56.9201L61.2009 53.8482H64.7853L50.6731 14.9319L50.5911 14.7476ZM49.1164 19.8477C49.2353 20.4041 49.3927 20.9516 49.5875 21.4863L55.7322 38.7733H42.2753L48.42 21.4453C48.6592 20.8169 48.8576 20.1738 49.014 19.52L49.1164 19.8477Z" fill="#F9E9BA"/>
<path d="M165.496 14.9729V14.7476H162.486L148.148 53.8482H151.712L156.013 41.907H171.764L176.045 53.8482H179.67L165.496 14.9729ZM163.94 19.8477C164.062 20.4034 164.219 20.9507 164.411 21.4863L170.678 38.7118H157.201L163.346 21.3838C163.551 20.8513 163.735 20.2164 163.94 19.4585V19.8477Z" fill="#F9E9BA"/>
<path d="M60.0334 17.8814H70.848V53.8482H74.0842V17.8814H84.8988V14.7476H60.0334V17.8814Z" fill="#F9E9BA"/>
<path d="M112.304 38.7118C112.304 47.2324 109.068 51.3698 102.391 51.3698C95.7135 51.3698 92.1495 47.1095 92.1495 38.3431V14.7476H88.8724V38.7118C88.8724 49.1782 93.2556 54.4831 101.879 54.4831C110.952 54.4831 115.561 48.9734 115.561 38.0973V14.7476H112.304V38.7118Z" fill="#F9E9BA"/>
<path d="M136.145 35.8034C138.422 35.2663 140.471 34.0266 142.003 32.2599C143.637 30.2355 144.487 27.6909 144.4 25.0912C144.454 23.7073 144.222 22.3271 143.718 21.0371C143.214 19.7472 142.449 18.5752 141.471 17.5947C140.386 16.6148 139.118 15.8589 137.74 15.3704C136.362 14.8818 134.902 14.6702 133.442 14.7476H122.709V53.8482H125.986V36.6636H130.287C131.592 36.6158 132.875 37.005 133.933 37.7697C135.247 39.039 136.262 40.5854 136.903 42.2962L141.983 53.7663H145.649L139.955 41.1083C139.193 39.0311 137.884 37.1983 136.166 35.8034M141.143 25.3574C141.207 26.4953 141.024 27.6336 140.607 28.6942C140.19 29.7547 139.548 30.7126 138.726 31.5021C136.895 33.047 134.544 33.8377 132.151 33.7142H126.007V17.9019H132.643C134.916 17.7684 137.155 18.5002 138.911 19.9501C139.646 20.6553 140.22 21.5107 140.595 22.4579C140.969 23.4052 141.136 24.4221 141.082 25.4394" fill="#F9E9BA"/>
<path d="M227.639 30.8876C227.861 31.1256 228.131 31.3129 228.431 31.4366C228.732 31.5604 229.056 31.6176 229.38 31.6045C229.709 31.6114 230.036 31.5493 230.339 31.4223C230.643 31.2953 230.916 31.1062 231.142 30.8671C231.38 30.6359 231.568 30.3586 231.694 30.0522C231.821 29.7458 231.884 29.4168 231.879 29.0852C231.888 28.7543 231.824 28.4255 231.693 28.1215C231.562 27.8174 231.367 27.5453 231.121 27.3237C230.892 27.0847 230.615 26.8972 230.308 26.7736C230 26.65 229.67 26.5931 229.339 26.6068C229.011 26.6012 228.685 26.6638 228.381 26.7908C228.078 26.9177 227.805 27.1061 227.578 27.3442C227.344 27.5783 227.159 27.8561 227.032 28.1618C226.906 28.4676 226.84 28.7953 226.841 29.1262C226.868 29.7947 227.155 30.4262 227.639 30.8876Z" fill="#F9E9BA"/>
<path d="M252.361 41.1902C252.075 41.0263 251.829 41.1902 251.645 41.7432C251.46 42.2962 251.133 43.2999 250.723 44.4673C250.338 45.6288 249.88 46.7645 249.351 47.8674C248.886 48.8868 248.317 49.8547 247.651 50.7554C247.463 51.0895 247.201 51.3759 246.885 51.5926C246.569 51.8092 246.207 51.9503 245.828 52.0048C245.554 52.002 245.288 51.9108 245.07 51.7447C244.853 51.5786 244.694 51.3465 244.619 51.0831C244.406 50.3945 244.337 49.6695 244.414 48.9529C244.478 47.972 244.629 46.9987 244.865 46.0445C245.111 44.9794 245.377 43.9962 245.684 43.0131L246.524 40.3914L247.057 38.7528C247.159 38.3841 247.282 37.954 247.405 37.4829C247.528 37.0454 247.623 36.6008 247.692 36.1516C247.754 35.7448 247.789 35.3342 247.794 34.9226C247.815 34.6096 247.728 34.2987 247.548 34.0419C246.073 34.2057 244.619 34.3286 243.144 34.3901C241.67 34.4515 240.359 34.3901 239.212 34.3901C239.812 33.8784 240.361 33.309 240.85 32.6901C241.437 32.0038 241.795 31.1518 241.875 30.2527C241.929 29.3753 241.73 28.5009 241.301 27.7334C240.981 27.1548 240.496 26.6843 239.908 26.3815C239.694 26.2555 239.45 26.189 239.202 26.189C238.953 26.189 238.709 26.2555 238.495 26.3815C238.244 26.5774 238.047 26.8351 237.925 27.1295C237.803 27.4238 237.76 27.7448 237.799 28.0611C237.799 29.7816 237.635 31.6045 237.409 33.5708C237.191 35.5551 236.856 37.5248 236.406 39.4697C236.201 40.3299 235.976 41.1902 235.73 42.03C235.177 43.73 234.562 45.4095 233.887 47.1095C233.341 48.5823 232.574 49.9635 231.613 51.206C231.301 51.5784 230.918 51.8848 230.486 52.1072C230.066 52.371 229.563 52.4729 229.073 52.394C228.703 52.4 228.341 52.2882 228.039 52.0746C227.737 51.861 227.511 51.5567 227.394 51.206C227.116 50.3546 227.032 49.4518 227.148 48.5638C227.148 48.5638 227.148 48.3385 227.271 48.1337C227.394 47.9288 227.271 47.724 227.414 47.5192C227.509 47.2913 227.565 47.0489 227.578 46.8023L230.527 35.3323C230.689 34.805 230.689 34.2415 230.527 33.7142C230.364 33.366 229.79 33.2021 228.827 33.2226H225.509C225.646 33.3865 225.892 33.7142 226.247 34.2057C226.413 34.4287 226.525 34.6871 226.575 34.9607C226.625 35.2343 226.611 35.5157 226.533 35.7829L224.321 45.7577C224.184 46.4318 224.116 47.1181 224.116 47.8059L223.502 48.912C222.8 50.0714 221.907 51.1033 220.86 51.9638C220.142 52.6146 219.207 52.9727 218.238 52.9675C217.786 52.906 217.358 52.7258 216.998 52.4451C216.639 52.1645 216.36 51.7935 216.19 51.3699C215.564 49.8617 215.318 48.223 215.473 46.5975C215.498 45.2977 215.635 44.0025 215.883 42.7263C216.116 41.4427 216.438 40.1767 216.845 38.9371C217.226 37.758 217.691 36.608 218.238 35.4961C218.706 34.487 219.261 33.5207 219.897 32.6081C220.469 31.9116 220.768 31.0305 220.737 30.1298C220.748 29.8102 220.692 29.4917 220.572 29.1952C220.452 28.8988 220.271 28.6309 220.041 28.4093C219.813 28.2381 219.536 28.1456 219.252 28.1456C218.967 28.1456 218.691 28.2381 218.463 28.4093C217.589 29.1214 216.97 30.0994 216.702 31.1949C216.177 32.5988 215.561 33.9672 214.859 35.2913C214.101 36.7455 213.24 38.1793 212.298 39.6335C211.356 41.0878 210.25 42.501 209.267 43.8734C208.223 45.2021 207.108 46.4738 205.928 47.683C204.229 49.4536 202.178 50.8489 199.907 51.7795C199.124 52.1407 198.277 52.3431 197.416 52.3747C196.554 52.4063 195.695 52.2667 194.888 51.9638C194.134 51.5921 193.475 51.0513 192.963 50.3834C192.452 49.7155 192.101 48.9386 191.939 48.1132C191.377 45.489 191.469 42.7671 192.205 40.1866C192.482 38.9565 192.838 37.7456 193.27 36.5612C193.721 35.2913 194.212 34.0624 194.725 32.8744C195.237 31.6864 195.728 30.5804 196.199 29.5563C196.67 28.5322 197.121 27.6924 197.49 27.0165C199.977 27.7814 202.551 28.2287 205.15 28.3478C207.884 28.4645 210.623 28.3686 213.343 28.0611C215.84 27.8553 218.299 27.318 220.655 26.4635C222.306 25.8661 223.834 24.9705 225.161 23.8213C226.158 22.9743 226.914 21.8792 227.353 20.6465C227.71 19.664 227.815 18.6079 227.66 17.5742C227.492 16.6097 227.124 15.6908 226.581 14.8761C226.038 14.0615 225.331 13.369 224.506 12.8428C222.463 11.5586 220.074 10.9363 217.665 11.0608C215.262 11.0756 212.878 11.4696 210.598 12.2283C208.429 12.9733 206.364 13.992 204.454 15.2597C202.543 16.531 200.772 18.0002 199.169 19.6429C197.579 21.277 196.107 23.0224 194.765 24.8659C193.793 24.4615 192.861 23.9678 191.98 23.3911C191.626 22.8297 191.389 22.2028 191.283 21.5477C191.079 20.5236 190.833 19.4995 190.567 18.4549C190.567 18.0862 190.382 17.6971 190.3 17.3079L189.788 17.6766C189.891 17.5496 189.98 17.4123 190.055 17.2669C190.068 17.1307 190.068 16.9935 190.055 16.8573C190.024 16.4524 189.942 16.0531 189.809 15.6693C189.358 14.4609 188.805 13.0476 188.15 11.6958C187.025 9.07378 185.364 6.71574 183.275 4.77279C182.701 4.28121 182.087 3.8306 181.493 3.40047L180.735 2.84746L181.657 6.34992L181.227 5.55111C180.766 4.75026 180.369 3.91479 180.039 3.05228C179.752 2.25347 179.097 2.00768 178.339 1.7619L178.769 3.31855L178.339 2.60167C177.642 1.4137 177.642 1.4137 176.29 1.04502C172.545 0.0137631 168.631 -0.257833 164.779 0.246218H164.534C168.169 1.6688 171.349 4.05509 173.73 7.14873C174.928 8.7774 176.009 10.4885 176.966 12.2693L177.13 12.556C177.393 13.0553 177.756 13.495 178.197 13.8475C178.637 14.1999 179.146 14.4576 179.691 14.6043C180.448 14.8091 181.206 15.0958 181.944 15.3621L182.927 15.7103V15.9561L178.994 15.0344C181.391 18.5648 184.838 21.2518 188.846 22.7152C189.487 23.2504 190.172 23.7301 190.894 24.149C191.904 24.7465 192.951 25.2801 194.028 25.7466C193.305 26.7531 192.661 27.8146 192.103 28.9213C191.55 30.0479 191.058 31.1949 190.587 32.3828C189.713 34.6065 189.128 36.9332 188.846 39.3058C188.573 41.345 188.573 43.4114 188.846 45.4505C189.096 47.1528 189.681 48.7887 190.567 50.2638C191.32 51.522 192.464 52.5 193.823 53.0494C195.066 53.5376 196.408 53.7202 197.735 53.5819C199.066 53.4206 200.36 53.04 201.566 52.4554C202.837 51.813 204.033 51.0297 205.129 50.1204C206.262 49.1914 207.33 48.1854 208.325 47.1095C209.287 46.0445 210.189 45.0613 211.008 43.8938C211.827 42.7263 212.524 41.8456 213.056 41.0468C212.713 41.6866 212.478 42.3786 212.36 43.095C212.193 44.0007 212.104 44.9189 212.093 45.8396C212.094 46.8443 212.197 47.8462 212.401 48.8301C212.583 49.7756 212.893 50.692 213.322 51.5542C213.691 52.3563 214.245 53.0586 214.94 53.6024C215.648 54.1308 216.516 54.3985 217.398 54.3603C218.097 54.3547 218.79 54.23 219.447 53.9916C220.122 53.7323 220.762 53.3882 221.351 52.9675C221.929 52.5502 222.458 52.0693 222.929 51.5337C223.4 51.0099 223.819 50.4404 224.178 49.8337C224.178 49.8337 224.178 49.8337 224.178 49.7313C224.269 50.0872 224.386 50.4363 224.526 50.7759C224.839 51.5873 225.371 52.2963 226.062 52.8241C226.868 53.3737 227.833 53.6402 228.807 53.5819C229.36 53.5772 229.907 53.4604 230.414 53.2386C230.921 53.0169 231.377 52.6947 231.756 52.2915C232.638 51.3841 233.377 50.3482 233.948 49.2192C233.948 49.2192 234.214 48.7276 234.337 48.4614C234.971 47.2955 235.532 46.0915 236.017 44.8565C236.447 43.5661 236.815 42.2962 237.143 41.0468C237.471 39.7974 237.717 38.6913 237.922 37.7082L238.311 35.7624C239.705 35.7263 241.094 35.9486 242.407 36.4178C242.625 36.4803 242.828 36.5867 243.003 36.7304C243.178 36.8742 243.322 37.0524 243.425 37.2539C243.529 37.4554 243.59 37.676 243.605 37.9021C243.62 38.1282 243.589 38.355 243.513 38.5685C243.418 38.9371 243.254 39.4082 243.022 39.9817C242.796 40.5552 242.53 41.1697 242.264 41.8251C241.997 42.4806 241.731 43.1565 241.506 43.8734C241.281 44.5902 241.096 45.2252 240.953 45.9216C240.631 47.2086 240.589 48.5496 240.83 49.8542C241.012 50.7648 241.428 51.6121 242.038 52.312C242.508 52.8781 243.136 53.2916 243.841 53.5C244.411 53.6511 245.011 53.6511 245.582 53.5C246.564 53.2124 247.44 52.6426 248.101 51.8614C248.875 50.9815 249.529 50.0036 250.047 48.9529C250.593 47.8383 251.065 46.6888 251.46 45.5119C251.87 44.324 252.218 43.2589 252.505 42.3167C252.73 41.7022 252.689 41.3131 252.402 41.1697M201.975 20.8923C203.254 19.292 204.711 17.8421 206.317 16.5705C207.938 15.32 209.732 14.3126 211.643 13.5801C213.73 12.7888 215.944 12.3862 218.177 12.3922C219.883 12.3304 221.577 12.7114 223.092 13.4982C223.752 13.8348 224.322 14.3248 224.753 14.9271C225.184 15.5295 225.465 16.2265 225.571 16.9597C225.788 18.1671 225.653 19.4114 225.182 20.5441C224.68 21.7116 223.89 22.7333 222.888 23.514C221.657 24.4634 220.271 25.1912 218.791 25.6647C216.977 26.2597 215.101 26.6445 213.199 26.8117C210.437 27.0972 207.659 27.193 204.884 27.0984C202.64 26.9832 200.419 26.5981 198.268 25.9514C199.415 24.2172 200.644 22.5377 201.955 20.9128M190.014 22.961C188.341 21.1965 186.958 19.1778 185.917 16.9802C184.77 14.7886 183.869 13.0271 182.804 11.409C181.432 9.21731 179.749 7.23706 177.806 5.53063L177.438 5.20291L177.909 5.34629C178.017 5.37553 178.115 5.43195 178.195 5.51015C181.236 8.12387 183.723 11.3206 185.508 14.9115L185.938 15.7308C186.552 16.8983 187.187 18.1067 187.883 19.2537C188.646 20.5147 189.516 21.7072 190.485 22.8176V22.9815L190.014 22.961Z" fill="#F9E9BA"/>
</svg>
